<svg width="14" height="14" viewBox="0 0 14 14" fill="none" xmlns="http://www.w3.org/2000/svg">
<path d="M1.14844 5.45289C1.14845 4.81415 1.34222 4.19043 1.70415 3.66412C2.06608 3.1378 2.57914 2.73366 3.17558 2.50506C3.77202 2.27646 4.42377 2.23416 5.04476 2.38374C5.66574 2.53332 6.22674 2.86776 6.65367 3.34287C6.68374 3.37502 6.7201 3.40065 6.76048 3.41818C6.80086 3.4357 6.84442 3.44474 6.88844 3.44474C6.93246 3.44474 6.97601 3.4357 7.0164 3.41818C7.05678 3.40065 7.09313 3.37502 7.1232 3.34287C7.54879 2.86467 8.10992 2.52743 8.73192 2.37602C9.35391 2.22462 10.0073 2.26624 10.605 2.49535C11.2028 2.72445 11.7166 3.13017 12.078 3.65851C12.4395 4.18685 12.6315 4.81275 12.6284 5.45289C12.6284 6.76735 11.7674 7.74889 10.9064 8.60989L7.75403 11.6596C7.64707 11.7824 7.5152 11.8811 7.36718 11.949C7.21916 12.017 7.05837 12.0527 6.89549 12.0537C6.73262 12.0547 6.57139 12.0211 6.42251 11.955C6.27364 11.8889 6.14053 11.7919 6.03203 11.6705L2.87044 8.60989C2.00944 7.74889 1.14844 6.77309 1.14844 5.45289Z" stroke="#0092B8" stroke-width="0.861" stroke-linecap="round" stroke-linejoin="round"/>
<path d="M1.84766 7.46188H5.45238L5.73938 6.88788L6.88738 9.47088L8.03538 5.45288L8.89638 7.46188H11.9214" stroke="#0092B8" stroke-width="0.861" stroke-linecap="round" stroke-linejoin="round"/>
</svg>
