<svg width="12" height="12" viewBox="0 0 12 12" fill="none" xmlns="http://www.w3.org/2000/svg">
<path d="M5.25781 8.12258L6.21341 9.07818C6.30753 9.17229 6.41927 9.24695 6.54224 9.29789C6.66521 9.34883 6.79701 9.37504 6.93011 9.37504C7.06322 9.37504 7.19502 9.34883 7.31799 9.29789C7.44096 9.24695 7.55269 9.17229 7.64681 9.07818C7.74093 8.98406 7.81559 8.87232 7.86653 8.74935C7.91746 8.62638 7.94368 8.49458 7.94368 8.36148C7.94368 8.22837 7.91746 8.09657 7.86653 7.9736C7.81559 7.85063 7.74093 7.73889 7.64681 7.64478" stroke="#0092B8" stroke-width="0.7167" stroke-linecap="round" stroke-linejoin="round"/>
<path d="M6.68968 6.68915L7.88418 7.88365C8.07426 8.07373 8.33206 8.18051 8.60088 8.18051C8.86969 8.18051 9.1275 8.07373 9.31758 7.88365C9.50766 7.69357 9.61444 7.43576 9.61444 7.16695C9.61444 6.89813 9.50766 6.64033 9.31758 6.45025L7.46371 4.59638C7.19495 4.32795 6.83063 4.17718 6.45078 4.17718C6.07092 4.17718 5.7066 4.32795 5.43784 4.59638L5.01738 5.01685C4.8273 5.20693 4.56949 5.31371 4.30068 5.31371C4.03186 5.31371 3.77406 5.20693 3.58398 5.01685C3.3939 4.82677 3.28711 4.56896 3.28711 4.30015C3.28711 4.03133 3.3939 3.77353 3.58398 3.58345L4.92659 2.24083C5.36246 1.8061 5.93088 1.52917 6.54187 1.45388C7.15285 1.37859 7.77149 1.50924 8.29986 1.82514L8.52443 1.95893C8.72787 2.08171 8.96976 2.1243 9.20291 2.07838L10.0343 1.91115" stroke="#0092B8" stroke-width="0.7167" stroke-linecap="round" stroke-linejoin="round"/>
<path d="M10.0344 1.43335L10.5122 6.68915H9.55664" stroke="#0092B8" stroke-width="0.7167" stroke-linecap="round" stroke-linejoin="round"/>
<path d="M1.43483 1.43335L0.957031 6.68915L4.06273 9.79485C4.25281 9.98493 4.51062 10.0917 4.77943 10.0917C5.04825 10.0917 5.30605 9.98493 5.49613 9.79485C5.68621 9.60477 5.793 9.34696 5.793 9.07815C5.793 8.80934 5.68621 8.55153 5.49613 8.36145" stroke="#0092B8" stroke-width="0.7167" stroke-linecap="round" stroke-linejoin="round"/>
<path d="M1.43359 1.91113H5.25599" stroke="#0092B8" stroke-width="0.7167" stroke-linecap="round" stroke-linejoin="round"/>
</svg>
