<svg width="20" height="20" viewBox="0 0 20 20" fill="none" xmlns="http://www.w3.org/2000/svg">
<g clip-path="url(#clip0_191_2366)">
<path d="M12.7466 15.9337V3.18664C12.7466 2.76405 12.5787 2.35877 12.2799 2.05995C11.9811 1.76114 11.5758 1.59326 11.1532 1.59326L7.96643 1.59326C7.54384 1.59326 7.13855 1.76114 6.83974 2.05995C6.54092 2.35877 6.37305 2.76405 6.37305 3.18664L6.37305 15.9337" stroke="#0092B8" stroke-width="1.59338" stroke-linecap="round" stroke-linejoin="round"/>
<path d="M15.9361 4.78003L3.18908 4.78003C2.30908 4.78003 1.5957 5.49341 1.5957 6.37341L1.5957 14.3403C1.5957 15.2203 2.30908 15.9337 3.18908 15.9337H15.9361C16.8161 15.9337 17.5295 15.2203 17.5295 14.3403V6.37341C17.5295 5.49341 16.8161 4.78003 15.9361 4.78003Z" stroke="#0092B8" stroke-width="1.59338" stroke-linecap="round" stroke-linejoin="round"/>
</g>
<defs>
<clipPath id="clip0_191_2366">
<rect width="19.1206" height="19.1206" fill="white"/>
</clipPath>
</defs>
</svg>
