<svg width="12" height="12" viewBox="0 0 12 12" fill="none" xmlns="http://www.w3.org/2000/svg">
<g clip-path="url(#clip0_191_2435)">
<path d="M0.957031 10.5117L7.64623 3.82251" stroke="#0092B8" stroke-width="0.7167" stroke-linecap="round" stroke-linejoin="round"/>
<path d="M1.6574 5.98689L2.38844 5.25586L3.11947 5.98689C3.43167 6.30032 3.60695 6.72468 3.60695 7.16706C3.60695 7.60944 3.43167 8.0338 3.11947 8.34723L2.38844 9.07826L1.6574 8.34723C1.34521 8.0338 1.16992 7.60944 1.16992 7.16706C1.16992 6.72468 1.34521 6.30032 1.6574 5.98689Z" stroke="#0092B8" stroke-width="0.7167" stroke-linecap="round" stroke-linejoin="round"/>
<path d="M3.56951 4.07552L4.30055 3.34448L5.03158 4.07552C5.34378 4.38894 5.51906 4.8133 5.51906 5.25568C5.51906 5.69806 5.34378 6.12242 5.03158 6.43585L4.30055 7.16688L3.56951 6.43585C3.25732 6.12242 3.08203 5.69806 3.08203 5.25568C3.08203 4.8133 3.25732 4.38894 3.56951 4.07552Z" stroke="#0092B8" stroke-width="0.7167" stroke-linecap="round" stroke-linejoin="round"/>
<path d="M5.48162 2.16438L6.21266 1.43335L6.94369 2.16438C7.25588 2.47781 7.43117 2.90217 7.43117 3.34455C7.43117 3.78693 7.25588 4.21129 6.94369 4.52472L6.21266 5.25575L5.48162 4.52472C5.16943 4.21129 4.99414 3.78693 4.99414 3.34455C4.99414 2.90217 5.16943 2.47781 5.48162 2.16438Z" stroke="#0092B8" stroke-width="0.7167" stroke-linecap="round" stroke-linejoin="round"/>
<path d="M9.55573 0.955566H10.5113V1.91117C10.5113 2.41805 10.31 2.90417 9.95155 3.26259C9.59313 3.62101 9.10701 3.82237 8.60013 3.82237H7.64453V2.86677C7.64453 2.35988 7.84589 1.87376 8.20431 1.51534C8.56273 1.15692 9.04885 0.955566 9.55573 0.955566Z" stroke="#0092B8" stroke-width="0.7167" stroke-linecap="round" stroke-linejoin="round"/>
<path d="M5.48199 8.3471L6.21303 9.07813L5.48199 9.80917C5.16857 10.1214 4.74421 10.2966 4.30183 10.2966C3.85944 10.2966 3.43509 10.1214 3.12166 9.80917L2.39062 9.07813L3.12166 8.3471C3.43509 8.03491 3.85944 7.85962 4.30183 7.85962C4.74421 7.85962 5.16857 8.03491 5.48199 8.3471Z" stroke="#0092B8" stroke-width="0.7167" stroke-linecap="round" stroke-linejoin="round"/>
<path d="M7.39215 6.43597L8.12318 7.167L7.39215 7.89804C7.07872 8.21023 6.65436 8.38552 6.21198 8.38552C5.7696 8.38552 5.34524 8.21023 5.03182 7.89804L4.30078 7.167L5.03182 6.43597C5.34524 6.12377 5.7696 5.94849 6.21198 5.94849C6.65436 5.94849 7.07872 6.12377 7.39215 6.43597Z" stroke="#0092B8" stroke-width="0.7167" stroke-linecap="round" stroke-linejoin="round"/>
<path d="M9.3023 4.52484L10.0333 5.25587L9.3023 5.9869C8.98888 6.2991 8.56452 6.47438 8.12214 6.47438C7.67976 6.47438 7.2554 6.2991 6.94197 5.9869L6.21094 5.25587L6.94197 4.52484C7.2554 4.21264 7.67976 4.03735 8.12214 4.03735C8.56452 4.03735 8.98888 4.21264 9.3023 4.52484Z" stroke="#0092B8" stroke-width="0.7167" stroke-linecap="round" stroke-linejoin="round"/>
</g>
<defs>
<clipPath id="clip0_191_2435">
<rect width="11.4672" height="11.4672" fill="white"/>
</clipPath>
</defs>
</svg>
