<svg width="12" height="12" viewBox="0 0 12 12" fill="none" xmlns="http://www.w3.org/2000/svg">
<path d="M7.16839 5.73369L3.16777 9.73431C2.97769 9.92439 2.71988 10.0312 2.45107 10.0312C2.18225 10.0312 1.92445 9.92439 1.73437 9.73431C1.54429 9.54423 1.4375 9.28643 1.4375 9.01761C1.4375 8.7488 1.54429 8.49099 1.73437 8.30091L5.73499 4.30029" stroke="#0092B8" stroke-width="0.7167" stroke-linecap="round" stroke-linejoin="round"/>
<path d="M8.59961 7.16706L10.5108 5.25586" stroke="#0092B8" stroke-width="0.7167" stroke-linecap="round" stroke-linejoin="round"/>
<path d="M10.2733 5.49472L9.35877 4.58021C9.17955 4.40104 9.07884 4.15802 9.07878 3.9046V3.34462L7.99895 2.26479C7.46599 1.73213 6.74473 1.43072 5.99124 1.42577L4.30078 1.41431L4.74036 1.8061C5.05258 2.08294 5.30258 2.4228 5.47389 2.80329C5.64519 3.18378 5.7339 3.59626 5.73418 4.01354V4.77802L6.68978 5.73362H7.24976C7.50318 5.73367 7.7462 5.83439 7.92537 6.01361L8.83988 6.92812" stroke="#0092B8" stroke-width="0.7167" stroke-linecap="round" stroke-linejoin="round"/>
</svg>
