<svg width="12" height="12" viewBox="0 0 12 12" fill="none" xmlns="http://www.w3.org/2000/svg">
<path d="M10.2334 5.21862C10.3189 5.18088 10.3915 5.11889 10.4422 5.04031C10.4928 4.96172 10.5193 4.87001 10.5183 4.77653C10.5173 4.68305 10.489 4.5919 10.4367 4.51438C10.3845 4.43686 10.3106 4.37638 10.2243 4.34042L6.12909 2.47509C6.00459 2.4183 5.86935 2.38892 5.73252 2.38892C5.59568 2.38892 5.46044 2.4183 5.33594 2.47509L1.2412 4.33851C1.15613 4.37577 1.08377 4.437 1.03295 4.51473C0.98214 4.59246 0.955078 4.68331 0.955078 4.77618C0.955078 4.86904 0.98214 4.95989 1.03295 5.03762C1.08377 5.11535 1.15613 5.17659 1.2412 5.21384L5.33594 7.08108C5.46044 7.13787 5.59568 7.16726 5.73252 7.16726C5.86935 7.16726 6.00459 7.13787 6.12909 7.08108L10.2334 5.21862Z" stroke="#0092B8" stroke-width="0.7167" stroke-linecap="round" stroke-linejoin="round"/>
<path d="M10.5098 4.77808V7.64488" stroke="#0092B8" stroke-width="0.7167" stroke-linecap="round" stroke-linejoin="round"/>
<path d="M2.86523 5.97241V7.64471C2.86523 8.02487 3.16727 8.38946 3.7049 8.65828C4.24253 8.92709 4.97171 9.07811 5.73203 9.07811C6.49236 9.07811 7.22154 8.92709 7.75917 8.65828C8.2968 8.38946 8.59883 8.02487 8.59883 7.64471V5.97241" stroke="#0092B8" stroke-width="0.7167" stroke-linecap="round" stroke-linejoin="round"/>
</svg>
